<svg height="180" viewBox="0 0 320 90" fill="none" xmlns="http://www.w3.org/2000/svg">
<path d="M58.3672 41.1992V50.5977H59.9844C60.5625 50.5977 60.9727 50.7109 61.2148 50.9375C61.4648 51.1562 61.5898 51.4453 61.5898 51.8047C61.5898 52.1562 61.4648 52.4453 61.2148 52.6719C60.9727 52.8906 60.5625 53 59.9844 53H54.3594C53.7812 53 53.3672 52.8906 53.1172 52.6719C52.875 52.4453 52.7539 52.1523 52.7539 51.793C52.7539 51.4414 52.875 51.1562 53.1172 50.9375C53.3672 50.7109 53.7812 50.5977 54.3594 50.5977H55.9648V41.1992H53.3633V43.4727C53.3633 44.0508 53.25 44.4648 53.0234 44.7148C52.8047 44.957 52.5156 45.0781 52.1562 45.0781C51.8047 45.0781 51.5156 44.957 51.2891 44.7148C51.0703 44.4648 50.9609 44.0508 50.9609 43.4727V38.7852L63.4062 38.7969V43.4727C63.4062 44.0508 63.293 44.4648 63.0664 44.7148C62.8477 44.957 62.5586 45.0781 62.1992 45.0781C61.8477 45.0781 61.5586 44.957 61.332 44.7148C61.1133 44.4648 61.0039 44.0508 61.0039 43.4727V41.1992H58.3672ZM69.1367 37.8008V42.9219C69.6367 42.625 70.1406 42.4062 70.6484 42.2656C71.1641 42.1172 71.6836 42.043 72.207 42.043C73.0352 42.043 73.7734 42.1836 74.4219 42.4648C75.0703 42.7461 75.6055 43.1914 76.0273 43.8008C76.457 44.4023 76.6719 45.1641 76.6719 46.0859V50.5977C77.2812 50.5977 77.6797 50.6562 77.8672 50.7734C78.2422 51.0156 78.4297 51.3594 78.4297 51.8047C78.4297 52.1562 78.3086 52.4453 78.0664 52.6719C77.8242 52.8906 77.4141 53 76.8359 53H74.0938C73.5234 53 73.1133 52.8906 72.8633 52.6719C72.6211 52.4453 72.5 52.1523 72.5 51.793C72.5 51.3555 72.6875 51.0156 73.0625 50.7734C73.2578 50.6484 73.6562 50.5898 74.2578 50.5977V46.25C74.2578 45.6328 74.1172 45.1992 73.8359 44.9492C73.4688 44.6133 72.9258 44.4453 72.207 44.4453C71.6758 44.4453 71.2031 44.5508 70.7891 44.7617C70.3828 44.9648 69.832 45.4102 69.1367 46.0977V50.5977C69.7539 50.5977 70.1523 50.6562 70.332 50.7734C70.7148 51.0156 70.9062 51.3594 70.9062 51.8047C70.9062 52.1562 70.7812 52.4453 70.5312 52.6719C70.2891 52.8906 69.8789 53 69.3008 53H66.5703C65.9922 53 65.5781 52.8906 65.3281 52.6719C65.0859 52.4453 64.9648 52.1523 64.9648 51.793C64.9648 51.3555 65.1562 51.0156 65.5391 50.7734C65.7266 50.6484 66.125 50.5898 66.7344 50.5977V40.2031H66.3242C65.7461 40.2031 65.332 40.0938 65.082 39.875C64.8398 39.6484 64.7188 39.3555 64.7188 38.9961C64.7188 38.6445 64.8398 38.3594 65.082 38.1406C65.332 37.9141 65.7461 37.8008 66.3242 37.8008H69.1367ZM92.0586 48.8984H82.2031C82.4531 49.5234 82.8945 50.0273 83.5273 50.4102C84.168 50.793 85.0312 50.9844 86.1172 50.9844C87.0078 50.9844 88.1914 50.793 89.668 50.4102C90.2773 50.2539 90.6992 50.1758 90.9336 50.1758C91.2539 50.1758 91.5234 50.2891 91.7422 50.5156C91.9609 50.7422 92.0703 51.0273 92.0703 51.3711C92.0703 51.6836 91.9531 51.9492 91.7188 52.168C91.4062 52.457 90.6445 52.7344 89.4336 53C88.2227 53.2578 87.0586 53.3867 85.9414 53.3867C84.0195 53.3867 82.4805 52.8438 81.3242 51.7578C80.1758 50.6719 79.6016 49.3359 79.6016 47.75C79.6016 46.0625 80.2227 44.6914 81.4648 43.6367C82.7148 42.5742 84.1523 42.043 85.7773 42.043C86.7539 42.043 87.6484 42.2148 88.4609 42.5586C89.2812 42.9023 89.8906 43.2734 90.2891 43.6719C90.8516 44.25 91.3164 44.9648 91.6836 45.8164C91.9336 46.4102 92.0586 47.0977 92.0586 47.8789V48.8984ZM89.3984 46.4961C89.0312 45.8086 88.5508 45.2969 87.957 44.9609C87.3633 44.6172 86.6562 44.4453 85.8359 44.4453C85.0234 44.4453 84.3203 44.6172 83.7266 44.9609C83.1328 45.2969 82.6484 45.8086 82.2734 46.4961H89.3984ZM113.469 48.125V50.5977H115.895C116.473 50.5977 116.883 50.7109 117.125 50.9375C117.375 51.1562 117.5 51.4453 117.5 51.8047C117.5 52.1562 117.375 52.4453 117.125 52.6719C116.883 52.8906 116.473 53 115.895 53H110.691C110.113 53 109.699 52.8906 109.449 52.6719C109.207 52.4453 109.086 52.1523 109.086 51.793C109.086 51.4414 109.211 51.1562 109.461 50.9375C109.711 50.7109 110.121 50.5977 110.691 50.5977H111.066V41.1992H110.691C110.113 41.1992 109.699 41.0898 109.449 40.8711C109.207 40.6445 109.086 40.3516 109.086 39.9922C109.086 39.6328 109.207 39.3438 109.449 39.125C109.699 38.8984 110.113 38.7852 110.691 38.7852L116.223 38.7969C117.848 38.7969 119.133 39.2422 120.078 40.1328C121.031 41.0156 121.508 42.0938 121.508 43.3672C121.508 44.0703 121.348 44.7344 121.027 45.3594C120.785 45.8281 120.379 46.293 119.809 46.7539C119.246 47.207 118.668 47.5508 118.074 47.7852C117.488 48.0117 116.711 48.125 115.742 48.125H113.469ZM113.469 45.7227H115.695C116.742 45.7227 117.57 45.4883 118.18 45.0195C118.797 44.543 119.105 43.9727 119.105 43.3086C119.105 42.7461 118.855 42.2539 118.355 41.832C117.863 41.4102 117.156 41.1992 116.234 41.1992H113.469V45.7227ZM128.773 42.3594V43.8594C129.781 43.1328 130.574 42.6484 131.152 42.4062C131.738 42.1641 132.285 42.043 132.793 42.043C133.574 42.043 134.332 42.332 135.066 42.9102C135.566 43.3008 135.816 43.6992 135.816 44.1055C135.816 44.4492 135.695 44.7422 135.453 44.9844C135.219 45.2188 134.934 45.3359 134.598 45.3359C134.301 45.3359 133.988 45.1875 133.66 44.8906C133.332 44.5938 133.039 44.4453 132.781 44.4453C132.445 44.4453 131.941 44.6562 131.27 45.0781C130.605 45.5 129.773 46.1328 128.773 46.9766V50.5977H132.195C132.773 50.5977 133.184 50.7109 133.426 50.9375C133.676 51.1562 133.801 51.4453 133.801 51.8047C133.801 52.1562 133.676 52.4453 133.426 52.6719C133.184 52.8906 132.773 53 132.195 53H124.941C124.363 53 123.949 52.8906 123.699 52.6719C123.457 52.4453 123.336 52.1523 123.336 51.793C123.336 51.4414 123.457 51.1562 123.699 50.9375C123.949 50.7109 124.363 50.5977 124.941 50.5977H126.371V44.7617H125.504C124.926 44.7617 124.512 44.6523 124.262 44.4336C124.02 44.207 123.898 43.9141 123.898 43.5547C123.898 43.2031 124.02 42.918 124.262 42.6992C124.512 42.4727 124.926 42.3594 125.504 42.3594H128.773ZM149.926 47.8789C149.926 48.8008 149.668 49.6953 149.152 50.5625C148.645 51.4219 147.883 52.1094 146.867 52.625C145.859 53.1328 144.805 53.3867 143.703 53.3867C142.609 53.3867 141.562 53.1367 140.562 52.6367C139.562 52.1289 138.801 51.4414 138.277 50.5742C137.754 49.707 137.492 48.8008 137.492 47.8555C137.492 46.8945 137.758 45.9531 138.289 45.0312C138.82 44.1016 139.582 43.3711 140.574 42.8398C141.574 42.3086 142.617 42.043 143.703 42.043C144.797 42.043 145.848 42.3164 146.855 42.8633C147.871 43.4023 148.637 44.1328 149.152 45.0547C149.668 45.9688 149.926 46.9102 149.926 47.8789ZM147.523 47.8906C147.523 47.1172 147.246 46.4062 146.691 45.7578C145.934 44.8828 144.938 44.4453 143.703 44.4453C142.617 44.4453 141.711 44.793 140.984 45.4883C140.258 46.1836 139.895 46.9883 139.895 47.9023C139.895 48.6523 140.262 49.3555 140.996 50.0117C141.73 50.6602 142.633 50.9844 143.703 50.9844C144.781 50.9844 145.688 50.6602 146.422 50.0117C147.156 49.3555 147.523 48.6484 147.523 47.8906ZM160.52 37.8008V40.3438H157.648V37.8008H160.52ZM159.535 44.7617H154.637C154.059 44.7617 153.645 44.6523 153.395 44.4336C153.152 44.207 153.031 43.9141 153.031 43.5547C153.031 43.2031 153.152 42.918 153.395 42.6992C153.645 42.4727 154.059 42.3594 154.637 42.3594H161.938V53.5039C161.938 54.3477 161.758 55.082 161.398 55.707C161.047 56.3398 160.504 56.8828 159.77 57.3359C159.035 57.7891 158.207 58.0156 157.285 58.0156H154.566C153.988 58.0156 153.574 57.9023 153.324 57.6758C153.082 57.457 152.961 57.1719 152.961 56.8203C152.961 56.4609 153.082 56.168 153.324 55.9414C153.574 55.7227 153.988 55.6133 154.566 55.6133H157.215C157.949 55.6133 158.52 55.4141 158.926 55.0156C159.332 54.6172 159.535 54.1133 159.535 53.5039V44.7617ZM178.543 48.8984H168.688C168.938 49.5234 169.379 50.0273 170.012 50.4102C170.652 50.793 171.516 50.9844 172.602 50.9844C173.492 50.9844 174.676 50.793 176.152 50.4102C176.762 50.2539 177.184 50.1758 177.418 50.1758C177.738 50.1758 178.008 50.2891 178.227 50.5156C178.445 50.7422 178.555 51.0273 178.555 51.3711C178.555 51.6836 178.438 51.9492 178.203 52.168C177.891 52.457 177.129 52.7344 175.918 53C174.707 53.2578 173.543 53.3867 172.426 53.3867C170.504 53.3867 168.965 52.8438 167.809 51.7578C166.66 50.6719 166.086 49.3359 166.086 47.75C166.086 46.0625 166.707 44.6914 167.949 43.6367C169.199 42.5742 170.637 42.043 172.262 42.043C173.238 42.043 174.133 42.2148 174.945 42.5586C175.766 42.9023 176.375 43.2734 176.773 43.6719C177.336 44.25 177.801 44.9648 178.168 45.8164C178.418 46.4102 178.543 47.0977 178.543 47.8789V48.8984ZM175.883 46.4961C175.516 45.8086 175.035 45.2969 174.441 44.9609C173.848 44.6172 173.141 44.4453 172.32 44.4453C171.508 44.4453 170.805 44.6172 170.211 44.9609C169.617 45.2969 169.133 45.8086 168.758 46.4961H175.883ZM190.672 42.793C190.961 42.5195 191.258 42.3828 191.562 42.3828C191.906 42.3828 192.188 42.5078 192.406 42.7578C192.633 43 192.746 43.4062 192.746 43.9766V45.5234C192.746 46.1016 192.633 46.5117 192.406 46.7539C192.188 46.9961 191.898 47.1172 191.539 47.1172C191.211 47.1172 190.934 47.0234 190.707 46.8359C190.543 46.6953 190.414 46.4102 190.32 45.9805C190.227 45.543 190 45.2188 189.641 45.0078C189.008 44.6328 188.199 44.4453 187.215 44.4453C186.082 44.4453 185.172 44.7773 184.484 45.4414C183.805 46.1055 183.465 46.9453 183.465 47.9609C183.465 48.8984 183.793 49.6406 184.449 50.1875C185.105 50.7266 186.195 50.9961 187.719 50.9961C188.719 50.9961 189.535 50.8945 190.168 50.6914C190.543 50.5664 190.898 50.3555 191.234 50.0586C191.57 49.7539 191.875 49.6016 192.148 49.6016C192.477 49.6016 192.758 49.7227 192.992 49.9648C193.234 50.207 193.355 50.4922 193.355 50.8203C193.355 51.3516 192.992 51.8555 192.266 52.332C191.188 53.043 189.609 53.3984 187.531 53.3984C185.664 53.3984 184.211 53.0117 183.172 52.2383C181.766 51.1992 181.062 49.7773 181.062 47.9727C181.062 46.2617 181.633 44.8477 182.773 43.7305C183.914 42.6055 185.402 42.043 187.238 42.043C187.902 42.043 188.52 42.1055 189.09 42.2305C189.66 42.3555 190.188 42.543 190.672 42.793ZM200.75 44.7617V49.5781C200.75 50.0938 200.855 50.4336 201.066 50.5977C201.395 50.8555 201.98 50.9844 202.824 50.9844C204.051 50.9844 205.184 50.7227 206.223 50.1992C206.621 49.9961 206.934 49.8945 207.16 49.8945C207.473 49.8945 207.742 50.0117 207.969 50.2461C208.203 50.4805 208.32 50.7656 208.32 51.1016C208.32 51.4141 208.195 51.6836 207.945 51.9102C207.562 52.2773 206.805 52.6172 205.672 52.9297C204.547 53.2344 203.598 53.3867 202.824 53.3867C201.332 53.3867 200.211 53.0664 199.461 52.4258C198.719 51.7773 198.348 50.9844 198.348 50.0469V44.7617H197.48C196.902 44.7617 196.488 44.6523 196.238 44.4336C195.996 44.207 195.875 43.9141 195.875 43.5547C195.875 43.2031 195.996 42.918 196.238 42.6992C196.488 42.4727 196.902 42.3594 197.48 42.3594H198.348V40.1914C198.348 39.6133 198.457 39.2031 198.676 38.9609C198.902 38.7109 199.195 38.5859 199.555 38.5859C199.906 38.5859 200.191 38.7109 200.41 38.9609C200.637 39.2031 200.75 39.6133 200.75 40.1914V42.3594H205.191C205.77 42.3594 206.18 42.4727 206.422 42.6992C206.672 42.918 206.797 43.207 206.797 43.5664C206.797 43.918 206.672 44.207 206.422 44.4336C206.18 44.6523 205.77 44.7617 205.191 44.7617H200.75Z" fill="black"/>
<path d="M265.906 70H227.984V64.2812L259.953 19.4219V19.0938H233.75V30.6719C233.75 31.6406 233.562 32.3281 233.188 32.7344C232.812 33.1406 232.328 33.3438 231.734 33.3438C231.172 33.3438 230.703 33.1406 230.328 32.7344C229.953 32.3281 229.766 31.6406 229.766 30.6719V15.1562H263.75V20.7344L231.781 65.6406V66.0625H261.969V52.3281C261.969 51.3594 262.141 50.6719 262.484 50.2656C262.859 49.8594 263.344 49.6562 263.938 49.6562C264.531 49.6562 265 49.8594 265.344 50.2656C265.719 50.6719 265.906 51.3594 265.906 52.3281V70Z" fill="black"/>
<path d="M272.906 78H234.984V72.2812L266.953 27.4219V27.0938H240.75V38.6719C240.75 39.6406 240.562 40.3281 240.188 40.7344C239.812 41.1406 239.328 41.3438 238.734 41.3438C238.172 41.3438 237.703 41.1406 237.328 40.7344C236.953 40.3281 236.766 39.6406 236.766 38.6719V23.1562H270.75V28.7344L238.781 73.6406V74.0625H268.969V60.3281C268.969 59.3594 269.141 58.6719 269.484 58.2656C269.859 57.8594 270.344 57.6562 270.938 57.6562C271.531 57.6562 272 57.8594 272.344 58.2656C272.719 58.6719 272.906 59.3594 272.906 60.3281V78Z" fill="#6E90AA"/>
</svg>
